<svg viewBox="0 0 115 27" fill="currentColor" xmlns="http://www.w3.org/2000/svg">
    <path d="M19.324 0.835998L11.368 11.636L3.412 0.835998H0.784L10.252 13.724V26H12.448V13.724L21.952 0.835998H19.324ZM34.2907 0.403999C26.5867 0.403999 20.3227 6.236 20.3227 13.4C20.3227 20.6 26.5867 26.432 34.2907 26.432C42.0307 26.432 48.2947 20.6 48.2947 13.4C48.2947 6.236 42.0307 0.403999 34.2907 0.403999ZM34.2907 24.416C27.8107 24.416 22.5187 19.484 22.5187 13.4C22.5187 7.352 27.8107 2.42 34.2907 2.42C40.8067 2.42 46.0987 7.352 46.0987 13.4C46.0987 19.484 40.8067 24.416 34.2907 24.416ZM68.0255 0.835998V19.304C68.0255 21.032 68.2775 22.472 68.2775 22.472C68.2775 22.472 67.4495 20.924 66.6935 19.844L53.1215 0.835998H51.3575V26H53.5535V7.532C53.5535 5.804 53.3015 4.364 53.3015 4.364C53.3015 4.364 54.1295 5.912 54.9215 6.992L68.4575 26H70.2575V0.835998H68.0255ZM91.1232 0.835998V19.304C91.1232 21.032 91.3752 22.472 91.3752 22.472C91.3752 22.472 90.5472 20.924 89.7912 19.844L76.2192 0.835998H74.4552V26H76.6512V7.532C76.6512 5.804 76.3992 4.364 76.3992 4.364C76.3992 4.364 77.2272 5.912 78.0192 6.992L91.5552 26H93.3552V0.835998H91.1232ZM114.149 2.816V0.799998H97.9128V0.835998H97.5888V26H97.9128V26.036H114.149V24.02H99.7848V14.3H113.213V12.284H99.7848V2.816H114.149Z"
    />
</svg>
